<svg xmlns="http://www.w3.org/2000/svg" viewBox="0 0 900 1100" role="img" aria-label="Заглушка портрета преподавателя">
  <rect width="900" height="1100" fill="#eadbc5"/>
  <path d="M0 760 C170 640 280 710 410 650 C560 580 690 470 900 560 L900 1100 L0 1100Z" fill="#496e5b"/>
  <circle cx="455" cy="315" r="132" fill="#c89b80"/>
  <path d="M310 320 C340 150 525 120 610 280 C558 235 505 232 455 252 C402 274 365 314 310 320Z" fill="#2d2925"/>
  <path d="M250 885 C285 650 370 515 455 515 C555 515 655 660 700 885Z" fill="#b85f49"/>
  <path d="M330 605 C430 680 540 665 620 590" fill="none" stroke="#fffaf1" stroke-width="10" stroke-linecap="round" opacity=".8"/>
  <g fill="none" stroke="#1e1f1c" stroke-width="7" stroke-linecap="round" opacity=".5">
    <path d="M120 180 C205 90 300 120 355 65"/>
    <path d="M660 190 C750 130 790 230 850 180"/>
    <path d="M150 515 C240 470 300 540 370 500"/>
  </g>
</svg>
