<svg xmlns="http://www.w3.org/2000/svg" viewBox="0 0 1200 900" role="img" aria-label="Абстрактная художественная композиция">
  <rect width="1200" height="900" fill="#efe3d0"/>
  <circle cx="900" cy="160" r="250" fill="#c49a45" opacity=".78"/>
  <circle cx="310" cy="680" r="310" fill="#496e5b" opacity=".72"/>
  <path d="M90 210 C310 70 520 190 720 110 C900 38 1040 88 1160 180 L1160 430 C930 350 760 455 560 360 C350 260 210 410 90 360Z" fill="#b85f49" opacity=".82"/>
  <path d="M0 640 C220 500 380 560 560 650 C760 750 980 690 1200 560 L1200 900 L0 900Z" fill="#345c7a" opacity=".74"/>
  <g fill="none" stroke="#1e1f1c" stroke-width="8" stroke-linecap="round" opacity=".62">
    <path d="M170 170 C280 255 350 165 470 240 S690 365 790 250"/>
    <path d="M180 735 C290 650 380 780 500 690 S720 540 840 620"/>
    <path d="M760 180 L1010 510"/>
  </g>
  <g fill="#fffaf1" opacity=".78">
    <rect x="155" y="430" width="180" height="130" transform="rotate(-9 245 495)"/>
    <rect x="745" y="445" width="240" height="160" transform="rotate(7 865 525)"/>
  </g>
</svg>
